<?xml version="1.0" standalone="no"?><!DOCTYPE svg PUBLIC "-//W3C//DTD SVG 1.1//EN" "http://www.w3.org/Graphics/SVG/1.1/DTD/svg11.dtd"><svg t="1574070592664" class="icon" viewBox="0 0 1024 1024" version="1.1" xmlns="http://www.w3.org/2000/svg" p-id="10952" xmlns:xlink="http://www.w3.org/1999/xlink" width="48" height="48"><defs><style type="text/css"></style></defs><path d="M512.133034 122.857861c8.559098 0 17.097719 1.904297 23.629662 5.733367l478.695179 280.750689c13.04341 7.65814 13.04341 20.066784 0 27.724924L535.762696 752.115349c-6.531943 3.82907-15.070564 5.733367-23.629662 5.733367s-17.097719-1.904297-23.629662-5.733367L9.787717 437.066841c-13.04341-7.65814-13.04341-20.066784 0-27.724924l478.695179-280.730213C495.014839 124.782634 503.573937 122.857861 512.133034 122.857861" fill="#FFAA2F" p-id="10953"></path><path d="M123.451715 819.318599a20.47631 20.47631 0 0 1-20.476311-20.47631v-593.812995a20.47631 20.47631 0 0 1 20.476311-20.47631h778.099786a20.47631 20.47631 0 0 1 20.47631 20.47631v593.812995a20.47631 20.47631 0 0 1-20.47631 20.47631h-778.099786z" fill="#FFFFFF" p-id="10954"></path><path d="M901.551501 205.029294v593.812995h-778.099786v-593.812995h778.099786m0-40.952621h-778.099786a40.95262 40.95262 0 0 0-40.952621 40.952621v593.812995a40.95262 40.95262 0 0 0 40.952621 40.95262h778.099786a40.95262 40.95262 0 0 0 40.95262-40.95262v-593.812995a40.95262 40.95262 0 0 0-40.95262-40.952621z" fill="#BEB9B6" p-id="10955"></path><path d="M225.833265 327.887155h573.336685v61.42893h-573.336685v-61.42893zM225.833265 614.535021h573.336685v61.42893h-573.336685v-61.42893z" fill="#CCCCCC" p-id="10956"></path><path d="M10.012956 396.482794l478.715656 317.300902c13.063886 8.948148 34.215914 8.948148 47.2798 0l478.715655-317.300902c1.576676-1.085244 5.078125-3.521925 9.828629-6.900517v592.604893c0 23.117754-19.104397 41.853578-42.67263 41.853578H43.102673c-23.568233 0-42.67263-18.735824-42.67263-41.853578V389.438943c3.583354 2.805254 6.941469 5.241935 9.582913 7.043851z" fill="#FFD041" p-id="10957"></path><path d="M559.310453 698.344558l-23.302041 15.439138c-13.063886 8.948148-34.215914 8.948148-47.2798 0l-23.650139-15.684853L12.552019 1011.324959c7.740045 7.82195 18.551537 12.715789 30.550654 12.715789h938.777393a43.000251 43.000251 0 0 0 30.223034-12.306263L559.310453 698.344558z" fill="#FFB345" p-id="10958"></path><path d="M225.833265 471.221326h573.336685v61.42893h-573.336685v-61.42893z" fill="#CCCCCC" p-id="10959"></path></svg>